<svg width="22" height="22" viewBox="0 0 22 22" fill="none" xmlns="http://www.w3.org/2000/svg">
<g clip-path="url(#clip0_199_1642)">
<g clip-path="url(#clip1_199_1642)">
<path fill-rule="evenodd" clip-rule="evenodd" d="M11.0001 0.916748C5.43121 0.916748 0.916748 5.43121 0.916748 11.0001C0.916748 16.5689 5.43121 21.0834 11.0001 21.0834C16.5689 21.0834 21.0834 16.5689 21.0834 11.0001C21.0834 5.43121 16.5689 0.916748 11.0001 0.916748ZM15.7733 8.89827C16.1312 8.54028 16.1312 7.95988 15.7733 7.6019C15.4153 7.24392 14.8349 7.24392 14.4769 7.6019L9.62508 12.4537L7.52327 10.3519C7.16528 9.99395 6.58488 9.99395 6.2269 10.3519C5.86892 10.7099 5.86892 11.2903 6.2269 11.6483L8.9769 14.3983C9.33486 14.7562 9.9153 14.7562 10.2733 14.3983L15.7733 8.89827Z" fill="#26A551"/>
</g>
</g>
<defs>
<clipPath id="clip0_199_1642">
<rect width="22" height="22" fill="white"/>
</clipPath>
<clipPath id="clip1_199_1642">
<rect width="22" height="22" fill="white"/>
</clipPath>
</defs>
</svg>
