<svg width="25" height="25" viewBox="0 0 25 25" fill="none" xmlns="http://www.w3.org/2000/svg">
<g clip-path="url(#clip0_194_1404)">
<mask id="mask0_194_1404" style="mask-type:luminance" maskUnits="userSpaceOnUse" x="0" y="0" width="25" height="25">
<path d="M24.385 0.839844H0.38501V24.8398H24.385V0.839844Z" fill="white"/>
</mask>
<g mask="url(#mask0_194_1404)">
<path d="M24.385 12.8398C24.385 6.21244 19.0124 0.839844 12.385 0.839844C5.75761 0.839844 0.38501 6.21244 0.38501 12.8398C0.38501 18.8293 4.77321 23.7938 10.51 24.694V16.3086H7.46311V12.8398H10.51V10.1961C10.51 7.18859 12.3016 5.52734 15.0426 5.52734C16.3551 5.52734 17.7288 5.76172 17.7288 5.76172V8.71484H16.2157C14.725 8.71484 14.26 9.63994 14.26 10.5898V12.8398H17.5881L17.0561 16.3086H14.26V24.694C19.9968 23.7938 24.385 18.8293 24.385 12.8398Z" fill="#101010"/>
</g>
</g>
<defs>
<clipPath id="clip0_194_1404">
<rect width="24" height="24" fill="white" transform="translate(0.38501 0.839844)"/>
</clipPath>
</defs>
</svg>
