<svg width="512" height="512" viewBox="0 0 512 512" fill="none" xmlns="http://www.w3.org/2000/svg">
<g clip-path="url(#clip0_10306_729)">
<path d="M256 0C205.368 0 155.873 15.0141 113.774 43.1438C71.6751 71.2734 38.863 111.255 19.487 158.033C0.110921 204.811 -4.95873 256.284 4.91908 305.943C14.7969 355.602 39.1785 401.217 74.9808 437.019C110.783 472.822 156.398 497.203 206.057 507.081C255.716 516.959 307.189 511.889 353.967 492.513C400.745 473.137 440.727 440.325 468.856 398.226C496.986 356.127 512 306.632 512 256C511.927 188.127 484.932 123.055 436.938 75.0618C388.945 27.0683 323.873 0.0734097 256 0ZM256 426.667C251.781 426.667 247.656 425.416 244.148 423.071C240.64 420.727 237.905 417.395 236.291 413.497C234.676 409.599 234.254 405.31 235.077 401.171C235.9 397.033 237.932 393.232 240.915 390.248C243.899 387.265 247.7 385.233 251.838 384.41C255.976 383.587 260.266 384.009 264.164 385.624C268.062 387.239 271.394 389.973 273.738 393.481C276.082 396.989 277.333 401.114 277.333 405.333C277.333 410.991 275.086 416.418 271.085 420.418C267.084 424.419 261.658 426.667 256 426.667ZM297.173 266.795C290.878 270.731 285.73 276.256 282.247 282.813C278.764 289.37 277.07 296.729 277.333 304.149V320C277.333 325.658 275.086 331.084 271.085 335.085C267.084 339.086 261.658 341.333 256 341.333C250.342 341.333 244.916 339.086 240.915 335.085C236.914 331.084 234.667 325.658 234.667 320V304.149C234.352 289.097 238.071 274.235 245.439 261.105C252.806 247.975 263.554 237.057 276.565 229.483C284.448 225.141 290.755 218.419 294.587 210.277C298.418 202.135 299.578 192.99 297.899 184.149C296.236 175.727 292.101 167.991 286.021 161.93C279.942 155.87 272.193 151.759 263.765 150.123C257.616 148.984 251.29 149.212 245.238 150.79C239.186 152.367 233.555 155.256 228.743 159.252C223.931 163.247 220.057 168.252 217.394 173.911C214.731 179.57 213.345 185.746 213.333 192C213.333 197.658 211.086 203.084 207.085 207.085C203.084 211.086 197.658 213.333 192 213.333C186.342 213.333 180.916 211.086 176.915 207.085C172.914 203.084 170.667 197.658 170.667 192C170.672 176.949 174.658 162.168 182.22 149.155C189.782 136.142 200.651 125.361 213.725 117.905C226.799 110.449 241.612 106.583 256.662 106.699C271.712 106.816 286.464 110.911 299.42 118.569C312.377 126.228 323.077 137.176 330.436 150.305C337.796 163.433 341.552 178.275 341.324 193.324C341.096 208.372 336.891 223.093 329.138 235.993C321.384 248.892 310.356 259.533 297.173 266.795Z" fill="#2BBC5D"/>
</g>
<defs>
<clipPath id="clip0_10306_729">
<rect width="512" height="512" fill="white"/>
</clipPath>
</defs>
</svg>
