<svg width="24" height="24" viewBox="0 0 24 24" fill="none" xmlns="http://www.w3.org/2000/svg">
<g clip-path="url(#clip0_10306_731)">
<path d="M2.395 16.061C1.525 16.165 0.699 16.498 0 17.025V5C0 2.624 1.672 0.575 4 0.1V16H3C2.797 16 2.594 16.02 2.395 16.061ZM18 10C18.692 10 19.359 10.097 20 10.263V5C20 2.239 17.761 0 15 0H6V16H10.263C11.155 12.555 14.28 10 18 10ZM10 18H3C1.343 18 0 19.343 0 21C0 22.657 1.343 24 3 24H12.726C11.059 22.533 10 20.39 10 18ZM24 18C24 21.314 21.314 24 18 24C14.686 24 12 21.314 12 18C12 14.686 14.686 12 18 12C21.314 12 24 14.686 24 18ZM19 19C19 18.448 18.552 18 18 18C17.448 18 17 18.448 17 19V21C17 21.552 17.448 22 18 22C18.552 22 19 21.552 19 21V19ZM19.5 15.5C19.5 14.672 18.828 14 18 14C17.172 14 16.5 14.672 16.5 15.5C16.5 16.328 17.172 17 18 17C18.828 17 19.5 16.328 19.5 15.5Z" fill="#2BBC5D"/>
</g>
<defs>
<clipPath id="clip0_10306_731">
<rect width="24" height="24" fill="white"/>
</clipPath>
</defs>
</svg>
