<svg width="25" height="25" viewBox="0 0 25 25" fill="none" xmlns="http://www.w3.org/2000/svg">
<g clip-path="url(#clip0_194_1388)">
<mask id="mask0_194_1388" style="mask-type:luminance" maskUnits="userSpaceOnUse" x="0" y="0" width="25" height="25">
<path d="M24.385 0.839844H0.38501V24.8398H24.385V0.839844Z" fill="white"/>
</mask>
<g mask="url(#mask0_194_1388)">
<path d="M12.385 3.00078C15.5913 3.00078 15.971 3.01484 17.2319 3.07109C18.4038 3.12265 19.0366 3.31953 19.4585 3.48359C20.0163 3.69922 20.4194 3.96172 20.8366 4.3789C21.2585 4.80078 21.5163 5.19922 21.7319 5.75703C21.896 6.17889 22.0928 6.81639 22.1444 7.98359C22.2007 9.24919 22.2147 9.62889 22.2147 12.8305C22.2147 16.0367 22.2007 16.4164 22.1444 17.6773C22.0928 18.8492 21.896 19.482 21.7319 19.9039C21.5163 20.4617 21.2538 20.8648 20.8366 21.282C20.4147 21.7039 20.0163 21.9617 19.4585 22.1773C19.0366 22.3414 18.3991 22.5383 17.2319 22.5898C15.9663 22.6461 15.5866 22.6601 12.385 22.6601C9.17876 22.6601 8.79906 22.6461 7.53816 22.5898C6.36626 22.5383 5.73346 22.3414 5.31157 22.1773C4.75376 21.9617 4.35063 21.6992 3.93345 21.282C3.51157 20.8601 3.25376 20.4617 3.03813 19.9039C2.87407 19.482 2.6772 18.8445 2.62563 17.6773C2.56938 16.4117 2.55532 16.032 2.55532 12.8305C2.55532 9.62424 2.56938 9.24454 2.62563 7.98359C2.6772 6.81169 2.87407 6.17889 3.03813 5.75703C3.25376 5.19922 3.51626 4.79609 3.93345 4.3789C4.35532 3.95703 4.75376 3.69922 5.31157 3.48359C5.73346 3.31953 6.37096 3.12265 7.53816 3.07109C8.79906 3.01484 9.17876 3.00078 12.385 3.00078ZM12.385 0.839844C9.12721 0.839844 8.71941 0.853906 7.43971 0.910156C6.16471 0.966406 5.28813 1.17266 4.52876 1.46797C3.73657 1.77734 3.06626 2.18515 2.40063 2.85547C1.73032 3.52109 1.32251 4.19141 1.01313 4.97891C0.717822 5.74297 0.511572 6.61484 0.455322 7.88984C0.399072 9.17419 0.38501 9.58204 0.38501 12.8398C0.38501 16.0976 0.399072 16.5054 0.455322 17.7851C0.511572 19.0601 0.717822 19.9367 1.01313 20.6961C1.32251 21.4883 1.73032 22.1586 2.40063 22.8242C3.06626 23.4898 3.73657 23.9023 4.52407 24.207C5.28813 24.5023 6.16001 24.7086 7.43501 24.7648C8.71471 24.8211 9.12251 24.8351 12.3803 24.8351C15.6382 24.8351 16.046 24.8211 17.3257 24.7648C18.6007 24.7086 19.4772 24.5023 20.2366 24.207C21.0241 23.9023 21.6944 23.4898 22.36 22.8242C23.0256 22.1586 23.4382 21.4883 23.7428 20.7008C24.0382 19.9367 24.2444 19.0648 24.3007 17.7898C24.3569 16.5101 24.371 16.1023 24.371 12.8445C24.371 9.58674 24.3569 9.17889 24.3007 7.89924C24.2444 6.62424 24.0382 5.74766 23.7428 4.98828C23.4475 4.1914 23.0397 3.52109 22.3694 2.85547C21.7038 2.18984 21.0335 1.77734 20.246 1.47265C19.4819 1.17734 18.61 0.971094 17.335 0.914844C16.0507 0.853906 15.6428 0.839844 12.385 0.839844Z" fill="#101010"/>
<path d="M12.385 6.67578C8.9819 6.67578 6.22095 9.43673 6.22095 12.8398C6.22095 16.2429 8.9819 19.0039 12.385 19.0039C15.7881 19.0039 18.549 16.2429 18.549 12.8398C18.549 9.43673 15.7881 6.67578 12.385 6.67578ZM12.385 16.8383C10.1772 16.8383 8.38655 15.0476 8.38655 12.8398C8.38655 10.632 10.1772 8.84138 12.385 8.84138C14.5928 8.84138 16.3834 10.632 16.3834 12.8398C16.3834 15.0476 14.5928 16.8383 12.385 16.8383Z" fill="#101010"/>
<path d="M20.2319 6.43175C20.2319 7.2286 19.585 7.8708 18.7928 7.8708C17.996 7.8708 17.3538 7.22395 17.3538 6.43175C17.3538 5.63487 18.0007 4.99268 18.7928 4.99268C19.585 4.99268 20.2319 5.63955 20.2319 6.43175Z" fill="#101010"/>
</g>
</g>
<defs>
<clipPath id="clip0_194_1388">
<rect width="24" height="24" fill="white" transform="translate(0.38501 0.839844)"/>
</clipPath>
</defs>
</svg>
