<svg width="25" height="25" viewBox="0 0 25 25" fill="none" xmlns="http://www.w3.org/2000/svg">
<g clip-path="url(#clip0_194_1381)">
<mask id="mask0_194_1381" style="mask-type:luminance" maskUnits="userSpaceOnUse" x="0" y="0" width="25" height="25">
<path d="M24.385 0.839844H0.38501V24.8398H24.385V0.839844Z" fill="white"/>
</mask>
<g mask="url(#mask0_194_1381)">
<path d="M22.6085 0.839844H2.15688C1.17719 0.839844 0.38501 1.61328 0.38501 2.56953V23.1054C0.38501 24.0617 1.17719 24.8398 2.15688 24.8398H22.6085C23.5881 24.8398 24.385 24.0617 24.385 23.1101V2.56953C24.385 1.61328 23.5881 0.839844 22.6085 0.839844ZM7.50531 21.2914H3.94282V9.83514H7.50531V21.2914ZM5.72406 8.27424C4.58032 8.27424 3.65688 7.35079 3.65688 6.21169C3.65688 5.07265 4.58032 4.14922 5.72406 4.14922C6.86316 4.14922 7.78656 5.07265 7.78656 6.21169C7.78656 7.34609 6.86316 8.27424 5.72406 8.27424ZM20.8366 21.2914H17.2788V15.7226C17.2788 14.3961 17.2553 12.6851 15.4272 12.6851C13.5756 12.6851 13.2944 14.1336 13.2944 15.6289V21.2914H9.74126V9.83514H13.1538V11.4008H13.2006C13.6741 10.5008 14.8366 9.54924 16.5663 9.54924C20.171 9.54924 20.8366 11.9211 20.8366 15.0055V21.2914Z" fill="#101010"/>
</g>
</g>
<defs>
<clipPath id="clip0_194_1381">
<rect width="24" height="24" fill="white" transform="translate(0.38501 0.839844)"/>
</clipPath>
</defs>
</svg>
