<svg width="20" height="20" viewBox="0 0 20 20" fill="none" xmlns="http://www.w3.org/2000/svg">
<g clip-path="url(#clip0_155_414)">
<path d="M16.6667 0H3.33333C1.495 0 0 1.495 0 3.33333V13.3333C0 15.1717 1.495 16.6667 3.33333 16.6667H5.76917L8.8925 19.2967C9.21083 19.58 9.61083 19.7208 10.0075 19.7208C10.3967 19.7208 10.7833 19.585 11.0842 19.3167L14.29 16.6667H16.6667C18.505 16.6667 20 15.1717 20 13.3333V3.33333C20 1.495 18.505 0 16.6667 0ZM6.5375 9.55417C6.40583 10.295 5.69833 10.8333 4.85667 10.8333C4.17583 10.8333 3.53583 10.5592 3.10167 10.08L3.1 10.0783C2.91 9.86917 2.925 9.545 3.135 9.355L3.13917 9.35083C3.34833 9.16083 3.6725 9.17667 3.8625 9.38583L3.86417 9.3875C4.1 9.6475 4.47083 9.8025 4.85667 9.8025C5.22583 9.8025 5.48583 9.58417 5.52417 9.3725C5.575 9.08833 5.1525 8.90917 5.02083 8.86083C4.40083 8.6325 3.8425 8.3825 3.8425 8.3825C3.34833 8.0675 3.13 7.58417 3.20167 7.08083C3.27917 6.54583 3.67 6.11 4.22333 5.94333C5.30917 5.61583 6.2075 6.35417 6.24417 6.38583L6.24667 6.3875C6.46333 6.57 6.49083 6.8925 6.30917 7.10917L6.305 7.11333C6.12333 7.33 5.8 7.3575 5.58333 7.17583C5.5625 7.15917 5.06167 6.7675 4.52 6.92917C4.27833 7.00167 4.23083 7.16167 4.22167 7.22667C4.215 7.275 4.21083 7.39583 4.32833 7.47583C4.34167 7.47583 4.83417 7.6925 5.37667 7.89333C6.38417 8.265 6.63667 8.99417 6.5375 9.5525V9.55417ZM12.4067 10.29C12.4067 10.5742 12.1758 10.805 11.8917 10.805H11.8892C11.605 10.805 11.3742 10.5742 11.3742 10.29V7.5975L10.3133 8.74667C10.1092 8.9675 9.76 8.9675 9.55583 8.74667L8.49417 7.59667L8.4925 10.2908C8.4925 10.575 8.26167 10.8058 7.9775 10.8058C7.69333 10.8058 7.4625 10.575 7.4625 10.2908V6.57167C7.4625 6.17917 7.78083 5.86167 8.1725 5.86167C8.3775 5.86167 8.5725 5.95 8.7075 6.105L9.935 7.51L11.1625 6.105C11.2975 5.95083 11.4925 5.86167 11.6975 5.86167C12.09 5.86167 12.4075 6.18 12.4075 6.57167V10.2908L12.4067 10.29ZM17.0133 9.52667C16.8817 10.2675 16.1742 10.8058 15.3325 10.8058C14.6517 10.8058 14.0117 10.5317 13.5775 10.0525L13.5758 10.0508C13.3858 9.84167 13.4008 9.5175 13.6108 9.3275L13.615 9.32333C13.8242 9.13333 14.1483 9.14917 14.3383 9.35833L14.34 9.36C14.5758 9.62 14.9467 9.775 15.3325 9.775C15.7017 9.775 15.9617 9.55667 16 9.345C16.0508 9.06083 15.6283 8.88167 15.4967 8.83333C14.8767 8.605 14.3183 8.355 14.3183 8.355C13.8242 8.04 13.6058 7.55667 13.6775 7.05333C13.755 6.51833 14.1458 6.0825 14.6992 5.91583C15.785 5.58833 16.6833 6.32667 16.72 6.35833L16.7225 6.36C16.9392 6.5425 16.9667 6.865 16.785 7.08167L16.7808 7.08583C16.5992 7.3025 16.2758 7.33 16.0592 7.14833C16.0383 7.13167 15.5375 6.74 14.9958 6.90167C14.7542 6.97417 14.7067 7.13417 14.6975 7.19917C14.6908 7.2475 14.6867 7.36833 14.8042 7.44833C14.8167 7.44833 15.31 7.665 15.8525 7.86583C16.86 8.2375 17.1125 8.96667 17.0133 9.525V9.52667Z" fill="#00A854"/>
</g>
<defs>
<clipPath id="clip0_155_414">
<rect width="20" height="20" fill="white"/>
</clipPath>
</defs>
</svg>
