<svg width="20" height="20" viewBox="0 0 20 20" fill="none" xmlns="http://www.w3.org/2000/svg">
<g clip-path="url(#clip0_155_426)">
<path d="M12.3101 20H7.3101C5.0126 20 3.14343 18.1308 3.14343 15.8333V4.16667C3.14343 1.86917 5.0126 0 7.3101 0H12.3101C14.6076 0 16.4768 1.86917 16.4768 4.16667V15.8333C16.4768 18.1308 14.6076 20 12.3101 20ZM7.3101 1.66667C5.93177 1.66667 4.8101 2.78833 4.8101 4.16667V15.8333C4.8101 17.2117 5.93177 18.3333 7.3101 18.3333H12.3101C13.6884 18.3333 14.8101 17.2117 14.8101 15.8333V4.16667C14.8101 2.78833 13.6884 1.66667 12.3101 1.66667H7.3101ZM11.4768 15.8333C11.4768 15.3733 11.1034 15 10.6434 15H8.97677C8.51677 15 8.14343 15.3733 8.14343 15.8333C8.14343 16.2933 8.51677 16.6667 8.97677 16.6667H10.6434C11.1034 16.6667 11.4768 16.2933 11.4768 15.8333Z" fill="#00A854"/>
</g>
<defs>
<clipPath id="clip0_155_426">
<rect width="20" height="20" fill="white"/>
</clipPath>
</defs>
</svg>
