<svg width="20" height="20" viewBox="0 0 20 20" fill="none" xmlns="http://www.w3.org/2000/svg">
<path d="M14.5552 7.82817C14.7324 7.82817 14.8838 7.88937 15.0096 8.01178C15.1354 8.13418 15.1982 8.28315 15.1982 8.45866V9.81249C15.1982 10.7509 15.0048 11.5804 14.6179 12.3012C14.231 13.0218 13.6943 13.5992 13.008 14.0333C12.3216 14.4675 11.5282 14.7272 10.6277 14.8127V16.2496H13.1657L13.2578 16.2563C13.5581 16.3008 13.7886 16.5597 13.7886 16.8724C13.7886 17.2165 13.5097 17.4953 13.1657 17.4953H6.8356C6.49158 17.4953 6.21269 17.2165 6.21269 16.8724L6.21945 16.7804C6.26394 16.48 6.52286 16.2496 6.8356 16.2496H9.37371V14.8127C8.47313 14.7272 7.67966 14.4675 6.99333 14.0333C6.30699 13.5992 5.77037 13.0218 5.38346 12.3012C4.99656 11.5804 4.8031 10.7509 4.8031 9.81249V8.45866C4.8031 8.28315 4.86598 8.13418 4.99173 8.01178C5.11748 7.88937 5.26855 7.82817 5.44493 7.82817C5.62502 7.82817 5.77856 7.88937 5.90556 8.01178C6.03256 8.13418 6.09606 8.28315 6.09606 8.45866V9.76649C6.09606 10.5412 6.25994 11.2188 6.58771 11.7992C6.91548 12.3797 7.37251 12.8294 7.95879 13.1487C8.54504 13.4679 9.22663 13.6275 10.0035 13.6275C10.7794 13.6275 11.4598 13.4679 12.0446 13.1487C12.6295 12.8294 13.0859 12.3797 13.4136 11.7992C13.7414 11.2188 13.9053 10.5412 13.9053 9.76649V8.45866C13.9053 8.28315 13.9685 8.13418 14.0952 8.01178C14.2218 7.88937 14.3751 7.82817 14.5552 7.82817ZM9.99812 2.40356C11.3515 2.40431 12.4481 3.50161 12.4481 4.85492V9.73624C12.4481 11.0893 11.3512 12.1862 9.99812 12.1862C8.64504 12.1862 7.54815 11.0893 7.54815 9.73624V4.85152L7.55345 4.68984C7.63707 3.41259 8.69988 2.40284 9.99812 2.40356Z" fill="#00A854"/>
</svg>
